<svg width="20" height="19" viewBox="0 0 20 19" fill="none" xmlns="http://www.w3.org/2000/svg">
<path d="M7.91666 16.6268C9.06666 17.7376 10.9333 17.7376 12.0833 16.6268M14.1667 10.6309C14.1667 10.3426 14.1667 10.1984 14.21 10.0701C14.3358 9.69677 14.6683 9.5526 15.0017 9.40094C15.375 9.2301 15.5617 9.1451 15.7475 9.1301C15.9575 9.11344 16.1683 9.15844 16.3483 9.25927C16.5867 9.3926 16.7533 9.6476 16.9233 9.85427C17.7092 10.8093 18.1025 11.2868 18.2458 11.8126C18.3625 12.2376 18.3625 12.6826 18.2458 13.1068C18.0367 13.8751 17.3742 14.5184 16.8833 15.1151C16.6325 15.4193 16.5067 15.5718 16.3483 15.6609C16.1652 15.7625 15.9561 15.8074 15.7475 15.7901C15.5617 15.7751 15.375 15.6901 15.0008 15.5193C14.6675 15.3676 14.3358 15.2234 14.21 14.8501C14.1667 14.7218 14.1667 14.5776 14.1667 14.2901V10.6309ZM5.83333 10.6309C5.83333 10.2676 5.82333 9.94177 5.52999 9.68677C5.42333 9.59427 5.28166 9.5301 4.99916 9.40094C4.62499 9.23094 4.43833 9.1451 4.25249 9.1301C3.69666 9.0851 3.39749 9.4651 3.07749 9.8551C2.29083 10.8093 1.89749 11.2868 1.75333 11.8134C1.63748 12.2368 1.63748 12.6834 1.75333 13.1068C1.96333 13.8751 2.62666 14.5184 3.11666 15.1151C3.42583 15.4901 3.72166 15.8326 4.25249 15.7901C4.43833 15.7751 4.62499 15.6901 4.99916 15.5193C5.28249 15.3901 5.42333 15.3259 5.52999 15.2334C5.82333 14.9784 5.83333 14.6526 5.83333 14.2893V10.6309Z" stroke="black" stroke-opacity="0.8" stroke-width="1.5" stroke-linecap="round" stroke-linejoin="round"/>
<path d="M1.66669 12.4601V9.12679C1.66669 4.52429 5.39752 0.793457 10 0.793457C14.6025 0.793457 18.3334 4.52429 18.3334 9.12679V12.4601" stroke="black" stroke-opacity="0.8" stroke-width="1.5" stroke-linecap="round" stroke-linejoin="round"/>
</svg>
