<svg width="14" height="14" viewBox="0 0 14 14" fill="none" xmlns="http://www.w3.org/2000/svg">
<path d="M3.00098 6.39983C3.00098 4.70302 3.00098 3.85401 3.58691 3.32721C4.17217 2.7998 5.11539 2.7998 7.0005 2.7998H9.00026C10.8854 2.7998 11.8286 2.7998 12.4139 3.32721C12.9998 3.85401 12.9998 4.70302 12.9998 6.39983V9.39985C12.9998 11.0967 12.9998 11.9457 12.4139 12.4725C11.8286 12.9999 10.8854 12.9999 9.00026 12.9999H7.0005C5.11539 12.9999 4.17217 12.9999 3.58691 12.4725C3.00098 11.9457 3.00098 11.0967 3.00098 9.39985V6.39983Z" stroke="#463FA4"/>
<path d="M2.99976 11.2001C2.46939 11.2001 1.96074 11.0104 1.58572 10.6729C1.21069 10.3353 1 9.87745 1 9.40006V5.80003C1 3.53742 1 2.40581 1.78124 1.7032C2.56248 1.0006 3.819 1 6.3327 1H8.99904C9.52941 1 10.0381 1.18964 10.4131 1.52721C10.7881 1.86478 10.9988 2.32262 10.9988 2.80001" stroke="#463FA4"/>
</svg>
