<svg width="17" height="17" viewBox="0 0 17 17" fill="none" xmlns="http://www.w3.org/2000/svg">
<path d="M8.5 11.1665L8.14645 11.5201L8.5 11.8736L8.85355 11.5201L8.5 11.1665ZM9 3.1665C9 2.89036 8.77614 2.6665 8.5 2.6665C8.22386 2.6665 8 2.89036 8 3.1665L9 3.1665ZM4.14645 7.52006L8.14645 11.5201L8.85355 10.813L4.85355 6.81295L4.14645 7.52006ZM8.85355 11.5201L12.8536 7.52006L12.1464 6.81295L8.14645 10.813L8.85355 11.5201ZM9 11.1665L9 3.1665L8 3.1665L8 11.1665L9 11.1665Z" fill="black" fill-opacity="0.7"/>
<path d="M3.83325 14.5L13.1666 14.5" stroke="black" stroke-opacity="0.7"/>
</svg>
