<svg width="17" height="16" viewBox="0 0 17 16" fill="none" xmlns="http://www.w3.org/2000/svg">
<path d="M3.36637 15C2.33562 15 1.5 14.2378 1.5 13.2967V6.4508C1.5 5.93358 1.75813 5.44359 2.2 5.12082L7.33362 1.37354C7.66163 1.13211 8.07414 1 8.5 1C8.92586 1 9.33837 1.13211 9.66638 1.37354L14.7991 5.12082C15.2419 5.44359 15.5 5.93358 15.5 6.4508V13.2967C15.5 14.2378 14.6644 15 13.6336 15H3.36637Z" stroke="#4034E8" stroke-width="1.5" stroke-linecap="round" stroke-linejoin="round"/>
<path d="M6.3125 14.9997V10.722C6.3125 10.3095 6.49687 9.91383 6.82506 9.62211C7.15325 9.33039 7.59837 9.1665 8.0625 9.1665H8.9375C9.40163 9.1665 9.84675 9.33039 10.1749 9.62211C10.5031 9.91383 10.6875 10.3095 10.6875 10.722V14.9997" stroke="#4034E8" stroke-width="1.5" stroke-linecap="round" stroke-linejoin="round"/>
</svg>
