<svg width="12" height="13" viewBox="0 0 12 13" fill="none" xmlns="http://www.w3.org/2000/svg">
<path fill-rule="evenodd" clip-rule="evenodd" d="M4 4V3.5C4 2.96957 4.21071 2.46086 4.58579 2.08579C4.96086 1.71071 5.46957 1.5 6 1.5C6.53043 1.5 7.03914 1.71071 7.41421 2.08579C7.78929 2.46086 8 2.96957 8 3.5V4H9.5C9.776 4 10 4.2245 10 4.5035V10.504C10 11.054 9.5525 11.5 9.003 11.5H2.997C2.73275 11.5 2.47931 11.3951 2.29237 11.2083C2.10542 11.0216 2.00027 10.7682 2 10.504V4.504C2 4.225 2.2225 4 2.5 4H4ZM4.6 4H7.4V3.5C7.4 3.1287 7.2525 2.7726 6.98995 2.51005C6.7274 2.2475 6.3713 2.1 6 2.1C5.6287 2.1 5.2726 2.2475 5.01005 2.51005C4.7475 2.7726 4.6 3.1287 4.6 3.5V4ZM4 4.6H2.6V10.504C2.6 10.722 2.778 10.9 2.997 10.9H9.003C9.10812 10.9 9.20894 10.8583 9.28337 10.7841C9.35779 10.7098 9.39973 10.6091 9.4 10.504V4.6H8V6H7.4V4.6H4.6V6H4V4.6Z" fill="black" fill-opacity="0.7"/>
</svg>
