<svg width="10" height="11" viewBox="0 0 10 11" fill="none" xmlns="http://www.w3.org/2000/svg">
<path d="M1.85915 5V8C1.85915 8.943 1.85915 9.414 2.15215 9.707C2.44515 10 2.91615 10 3.85915 10H6.85915C7.80215 10 8.27315 10 8.56615 9.707C8.85915 9.414 8.85915 8.943 8.85915 8V5M1.66965 1.7575C1.76065 1.3935 1.80615 1.212 1.94165 1.106C2.07765 1 2.26515 1 2.64015 1H8.07815C8.45315 1 8.64065 1 8.77665 1.106C8.91165 1.212 8.95765 1.3935 9.04865 1.7575L9.65015 4.1645C9.69865 4.3585 9.72315 4.455 9.71765 4.534C9.71081 4.63363 9.67429 4.72893 9.6128 4.80762C9.55131 4.8863 9.46767 4.94478 9.37265 4.9755C9.29765 5 9.19565 5 8.99115 5C8.72465 5 8.59115 5 8.47965 4.974C8.32506 4.93799 8.18127 4.8657 8.06015 4.76311C7.93904 4.66051 7.84409 4.53056 7.78315 4.384C7.73865 4.278 7.71715 4.149 7.67465 3.8925C7.66265 3.8205 7.65665 3.7845 7.64965 3.775C7.64501 3.7686 7.63893 3.76338 7.63189 3.75979C7.62485 3.7562 7.61705 3.75432 7.60915 3.75432C7.60124 3.75432 7.59345 3.7562 7.58641 3.75979C7.57937 3.76338 7.57328 3.7686 7.56865 3.775C7.56165 3.7845 7.55565 3.82 7.54365 3.8925L7.50315 4.137L7.49415 4.187C7.45143 4.41177 7.33292 4.6151 7.15839 4.76306C6.98387 4.91101 6.76389 4.99464 6.53515 5H6.43315C6.19557 4.99463 5.96767 4.90483 5.79029 4.74669C5.61291 4.58855 5.49764 4.37241 5.46515 4.137L5.42465 3.892C5.41265 3.8205 5.40665 3.7845 5.39965 3.775C5.39501 3.7686 5.38893 3.76338 5.38189 3.75979C5.37485 3.7562 5.36705 3.75432 5.35915 3.75432C5.35124 3.75432 5.34345 3.7562 5.33641 3.75979C5.32937 3.76338 5.32328 3.7686 5.31865 3.775C5.31165 3.7845 5.30565 3.82 5.29365 3.8925L5.25315 4.137L5.24415 4.187C5.20143 4.41177 5.08292 4.6151 4.90839 4.76306C4.73387 4.91101 4.51389 4.99464 4.28515 5H4.18315C3.95441 4.99464 3.73443 4.91101 3.55991 4.76306C3.38538 4.6151 3.26687 4.41177 3.22415 4.187L3.21515 4.137L3.17465 3.892C3.16265 3.8205 3.15665 3.7845 3.14965 3.775C3.14501 3.7686 3.13893 3.76338 3.13189 3.75979C3.12485 3.7562 3.11705 3.75432 3.10915 3.75432C3.10124 3.75432 3.09345 3.7562 3.08641 3.75979C3.07937 3.76338 3.07328 3.7686 3.06865 3.775C3.06165 3.7845 3.05565 3.82 3.04365 3.8925C3.00115 4.1495 2.97965 4.2775 2.93515 4.384C2.87426 4.5305 2.77938 4.66042 2.65836 4.76301C2.53734 4.8656 2.39365 4.93792 2.23915 4.974C2.12715 5 1.99415 5 1.72715 5C1.52265 5 1.42065 5 1.34565 4.9755C1.25063 4.94478 1.16699 4.8863 1.1055 4.80762C1.04401 4.72893 1.00749 4.63363 1.00065 4.534C0.995649 4.455 1.01965 4.3585 1.06815 4.1645L1.66965 1.7575Z" stroke="#252529" stroke-width="0.5"/>
</svg>
