<svg width="20" height="20" viewBox="0 0 20 20" fill="none" xmlns="http://www.w3.org/2000/svg">
<path d="M10.0359 19.9391H9.96413C5.32855 19.9273 2.22222 18.9654 1.57706 18.3716C0.896053 17.766 0 14.6311 0 9.99987C0 5.3805 0.896053 2.23365 1.57706 1.62803C2.22222 1.03429 5.3405 0.0724218 9.96413 0.0605469H10.0359C14.6715 0.0724218 17.7778 1.03429 18.4229 1.62803C19.104 2.23365 20 5.3805 20 9.99987C20 14.6192 19.104 17.766 18.4229 18.3716C17.7778 18.9773 14.6715 19.9391 10.0359 19.9391Z" fill="#0357EE"/>
<path d="M14.6076 10.5943L14.2253 5.95117H11.9194C11.9194 5.95117 10.1631 9.52553 10.0078 10.0124H9.98391L8.13207 5.95117H5.81427L5.43195 9.97674L5.10938 14.0617H6.51917C7.12849 14.0617 7.36743 13.8005 7.41522 13.1592C7.41522 13.1592 7.65417 9.41863 7.61833 8.87243H7.64222L7.71391 9.12174C7.80949 9.45429 9.12369 12.6486 9.12369 12.6486H10.856C10.856 12.6486 12.1703 9.50179 12.3375 8.87243H12.3614L12.5646 13.1592C12.6124 13.8005 12.8632 14.0617 13.4606 14.0617H14.8704L14.6076 10.5943Z" fill="white"/>
</svg>
