<svg width="16" height="16" viewBox="0 0 16 16" fill="none" xmlns="http://www.w3.org/2000/svg">
<path d="M13.9425 7.41288C13.9425 10.6729 11.5758 13.7262 8.34251 14.6195C8.12251 14.6795 7.8825 14.6795 7.6625 14.6195C4.42916 13.7262 2.0625 10.6729 2.0625 7.41288V4.4862C2.0625 3.93953 2.47584 3.31954 2.98918 3.11287L6.70249 1.59289C7.53583 1.25289 8.47583 1.25289 9.30916 1.59289L13.0225 3.11287C13.5292 3.31954 13.9492 3.93953 13.9492 4.4862L13.9425 7.41288Z" stroke="#2B2F2D" stroke-linecap="round" stroke-linejoin="round"/>
<path d="M7.9974 8.33268C8.73378 8.33268 9.33073 7.73573 9.33073 6.99935C9.33073 6.26297 8.73378 5.66602 7.9974 5.66602C7.26102 5.66602 6.66406 6.26297 6.66406 6.99935C6.66406 7.73573 7.26102 8.33268 7.9974 8.33268Z" stroke="#2B2F2D" stroke-miterlimit="10" stroke-linecap="round" stroke-linejoin="round"/>
<path d="M8 8.33203V10.332" stroke="#2B2F2D" stroke-miterlimit="10" stroke-linecap="round" stroke-linejoin="round"/>
</svg>
