<svg width="15" height="14" viewBox="0 0 15 14" fill="none" xmlns="http://www.w3.org/2000/svg">
<path d="M13.3609 7.40416C13.5237 7.26466 13.605 7.19491 13.6348 7.11191C13.661 7.03906 13.661 6.95938 13.6348 6.88653C13.605 6.80353 13.5237 6.73378 13.3609 6.59428L7.71375 1.75387C7.4336 1.51373 7.29353 1.39367 7.17493 1.39073C7.07186 1.38817 6.97341 1.43345 6.90828 1.51337C6.83333 1.60533 6.83333 1.78982 6.83333 2.1588V5.02231C5.41021 5.27128 4.10773 5.99239 3.13981 7.07513C2.08455 8.25556 1.50082 9.78318 1.5 11.3665V11.7745C2.19956 10.9318 3.073 10.2502 4.06051 9.7765C4.93113 9.35884 5.87228 9.11143 6.83333 9.04624V11.8396C6.83333 12.2086 6.83333 12.3931 6.90828 12.4851C6.97341 12.565 7.07186 12.6103 7.17493 12.6077C7.29353 12.6048 7.4336 12.4847 7.71375 12.2446L13.3609 7.40416Z" stroke="#F8F8F8" stroke-width="1.3" stroke-linecap="round" stroke-linejoin="round"/>
</svg>
