<svg width="16" height="16" viewBox="0 0 16 16" fill="none" xmlns="http://www.w3.org/2000/svg">
<path d="M2.00781 7.48047V10.4738C2.00781 13.4671 3.20781 14.6671 6.20115 14.6671H9.79448C12.7878 14.6671 13.9878 13.4671 13.9878 10.4738V7.48047" stroke="#2B2F2D" stroke-linecap="round" stroke-linejoin="round"/>
<path d="M8.00292 8.00065C9.22292 8.00065 10.1229 7.00732 10.0029 5.78732L9.56292 1.33398H6.44959L6.00292 5.78732C5.88292 7.00732 6.78292 8.00065 8.00292 8.00065Z" stroke="#2B2F2D" stroke-linecap="round" stroke-linejoin="round"/>
<path d="M12.2046 8.00065C13.5512 8.00065 14.5379 6.90732 14.4046 5.56732L14.2179 3.73398C13.9779 2.00065 13.3113 1.33398 11.5646 1.33398H9.53125L9.99792 6.00732C10.1112 7.10732 11.1046 8.00065 12.2046 8.00065Z" stroke="#2B2F2D" stroke-linecap="round" stroke-linejoin="round"/>
<path d="M3.75895 8.00065C4.85894 8.00065 5.85228 7.10732 5.95894 6.00732L6.10561 4.53398L6.42561 1.33398H4.39228C2.64561 1.33398 1.97895 2.00065 1.73895 3.73398L1.55895 5.56732C1.42561 6.90732 2.41228 8.00065 3.75895 8.00065Z" stroke="#2B2F2D" stroke-linecap="round" stroke-linejoin="round"/>
<path d="M8.0026 11.334C6.88927 11.334 6.33594 11.8873 6.33594 13.0007V14.6673H9.66927V13.0007C9.66927 11.8873 9.11594 11.334 8.0026 11.334Z" stroke="#2B2F2D" stroke-linecap="round" stroke-linejoin="round"/>
</svg>
