<svg width="16" height="14" viewBox="0 0 16 14" fill="none" xmlns="http://www.w3.org/2000/svg">
<path d="M9.58334 1H6.08334C3.60847 1 2.37103 1 1.60219 1.75315C0.833344 2.50631 0.833344 3.71849 0.833344 6.14286V7.85714C0.833344 10.2815 0.833344 11.4937 1.60219 12.2468C2.37103 13 3.60847 13 6.08334 13H9.58334C12.0582 13 13.2957 13 14.0645 12.2468C14.8333 11.4937 14.8333 10.2815 14.8333 7.85714V6.14286C14.8333 3.71849 14.8333 2.50631 14.0645 1.75315C13.2957 1 12.0582 1 9.58334 1Z" stroke="black" stroke-opacity="0.5" stroke-width="1.5"/>
<path d="M3.94444 4H6.27778" stroke="black" stroke-opacity="0.5" stroke-width="1.5" stroke-linecap="round"/>
<path d="M13.3333 10H11.6667C11.2007 10 10.9678 10 10.784 9.92388C10.539 9.82239 10.3443 9.62771 10.2428 9.38268C10.1667 9.19891 10.1667 8.96594 10.1667 8.5C10.1667 8.03406 10.1667 7.80109 10.2428 7.61732C10.3443 7.37229 10.539 7.17761 10.784 7.07612C10.9678 7 11.2007 7 11.6667 7H13.3333C13.7993 7 14.0323 7 14.216 7.07612C14.4611 7.17761 14.6557 7.37229 14.7572 7.61732C14.8333 7.80109 14.8333 8.03406 14.8333 8.5C14.8333 8.96594 14.8333 9.19891 14.7572 9.38268C14.6557 9.62771 14.4611 9.82239 14.216 9.92388C14.0323 10 13.7993 10 13.3333 10Z" stroke="black" stroke-opacity="0.5" stroke-width="1.5"/>
</svg>
