<svg width="17" height="17" viewBox="0 0 17 17" fill="none" xmlns="http://www.w3.org/2000/svg">
<path d="M8.5 3.8335L8.85355 3.47994L8.5 3.12639L8.14645 3.47994L8.5 3.8335ZM8 11.8335C8 12.1096 8.22386 12.3335 8.5 12.3335C8.77614 12.3335 9 12.1096 9 11.8335L8 11.8335ZM12.8536 7.47994L8.85355 3.47994L8.14645 4.18705L12.1464 8.18705L12.8536 7.47994ZM8.14645 3.47994L4.14645 7.47994L4.85355 8.18705L8.85355 4.18705L8.14645 3.47994ZM8 3.8335L8 11.8335L9 11.8335L9 3.8335L8 3.8335Z" fill="black" fill-opacity="0.7"/>
<path d="M3.83325 14.5L13.1666 14.5" stroke="black" stroke-opacity="0.7"/>
</svg>
